 http://img41.imageshack.us/img41/595/waterforelephants2011.jpg

Country.......: USA
Genre.........: Drama
Date release..: 15.04.2011 [World]
Director......: Francis Lawrence
Writers.......: Richard LaGravenese, Sara Gruen
Duration......: 113 min.
More..........: http://www.imdb.com/title/tt1067583
Trailer.......: http://www.imdb.com/video/imdb/vi1397594649
Trailer.......:

Pilot :
A veterinary student abandons his studies after his parents are killed and joins a traveling circus as their vet. 

Cats :
Reese Witherspoon   	 ...  	Marlena
Robert Pattinson 	... 	Jacob
Christoph Waltz 	... 	August
Paul Schneider 	... 	Charlie
Jim Norton 	... 	Camel
Hal Holbrook 	... 	Old Jacob
Mark Povinelli 	... 	Kinko / Walter
Richard Brake 	... 	Grady
Stephen Taylor 	... 	Wade (as Stephen Monroe Taylor)
Ken Foree 	... 	Earl
Scott MacDonald 	... 	Blackie
James Frain 	... 	Rosie's Caretaker
Sam Anderson 	... 	Mr. Hyde
John Aylward 	... 	Mr. Erwin
Brad Greenquist 	... 	Mr. Robinson 

Data Technical :
!!! SAMPLE !!!
Audio.....: English
Subtitles.: None
Format                           : AVI
Format/Info                      : Audio Video Interleave
File size                        : 716 MiB
Duration                         : 1h 53mn
Overall bit rate                 : 886 Kbps
Writing application              : MEncoder Sherpya-SVN-r32492-4.2.5
Writing library                  : MPlayer
Video
ID                               : 0
Format                           : MPEG-4 Visual
Format profile                   : Simple@L3
Format settings, BVOP            : No
Format settings, QPel            : No
Format settings, GMC             : No warppoints
Format settings, Matrix          : Default (H.263)
Codec ID                         : XVID
Codec ID/Hint                    : XviD
Duration                         : 1h 53mn
Bit rate                         : 757 Kbps
Width                            : 624 pixels
Height                           : 272 pixels
Display aspect ratio             : 2.25:1
Frame rate                       : 25.000 fps
Color space                      : YUV
Chroma subsampling               : 4:2:0
Bit depth                        : 8 bits
Scan type                        : Progressive
Bits/(Pixel*Frame)               : 0.178
Stream size                      : 612 MiB (85%)
Writing library                  : XviD 1.2.1 (UTC 2008-12-04)
Audio
ID                               : 1
Format                           : MPEG Audio
Format version                   : Version 1
Format profile                   : Layer 3
Mode                             : Joint stereo
Mode extension                   : MS Stereo
Codec ID                         : 55
Codec ID/Hint                    : MP3
Duration                         : 1h 52mn
Bit rate mode                    : Variable
Bit rate                         : 116 Kbps
Channel(s)                       : 2 channels
Sampling rate                    : 44.1 KHz
Stream size                      : 94.1 MiB (13%)
Alignment                        : Aligned on interleaves
Interleave, duration             : 26 ms (0.65 video frame)
Interleave, preload duration     : 223 ms
Writing library                  : LAME3.98.4

Screen : 
http://img148.imageshack.us/img148/6209/waterforelephants2011s1.jpg 
http://img834.imageshack.us/img834/5204/waterforelephants2011s2.jpg 
http://img819.imageshack.us/img819/8407/waterforelephants2011s3.jpg 
http://img38.imageshack.us/img38/228/waterforelephants2011s4.jpg 
http://img251.imageshack.us/img251/7021/waterforelephants2011s5.jpg